<svg width="128" height="24" viewBox="0 0 128 24" fill="none" xmlns="http://www.w3.org/2000/svg">
<path fill-rule="evenodd" clip-rule="evenodd" d="M1 0C0.447715 0 0 0.447716 0 1V1.78005H2.99671C4.52031 1.78005 5.85345 2.05618 6.99615 2.60843C8.13884 3.16068 9.02761 3.95578 9.66244 4.99375C10.2973 6.03171 10.6147 7.27594 10.6147 8.72642C10.6147 10.1902 10.2872 11.4245 9.63237 12.4292C9.02734 13.3669 8.19234 14.0903 7.12736 14.5991L11.2963 22.2199H5.24201L1.63776 15.4732H0V23C0 23.5523 0.447715 24 1 24H14C14.5523 24 15 23.5523 15 23V1C15 0.447715 14.5523 0 14 0H1ZM0 11.1616H1.67359C2.32847 11.1616 2.88645 11.0818 3.34754 10.9221C3.81531 10.7558 4.17282 10.493 4.42007 10.1337C4.674 9.77437 4.80097 9.30529 4.80097 8.72642C4.80097 8.14091 4.674 7.66517 4.42007 7.29922C4.17282 6.92662 3.81531 6.65382 3.34754 6.48083C2.88645 6.30118 2.32847 6.21136 1.67359 6.21136H0V11.1616Z" fill="white"/>
<path d="M128 3.97058V19.7976H124.708V3.97058H128Z" fill="white"/>
<path d="M115.904 20.0217C115.147 20.0217 114.472 19.8904 113.879 19.6276C113.287 19.3597 112.818 18.9656 112.473 18.4452C112.133 17.9197 111.963 17.2654 111.963 16.4823C111.963 15.8228 112.084 15.269 112.326 14.8207C112.568 14.3725 112.898 14.0119 113.315 13.7388C113.732 13.4658 114.206 13.2597 114.737 13.1206C115.273 12.9815 115.835 12.8836 116.422 12.8269C117.112 12.7548 117.669 12.6878 118.091 12.626C118.514 12.559 118.82 12.4611 119.011 12.3323C119.201 12.2035 119.297 12.0129 119.297 11.7604V11.7141C119.297 11.2246 119.142 10.846 118.833 10.578C118.529 10.3101 118.096 10.1762 117.535 10.1762C116.942 10.1762 116.471 10.3076 116.12 10.5703C115.77 10.8279 115.538 11.1525 115.425 11.5441L112.38 11.2968C112.535 10.5755 112.839 9.95208 113.292 9.42657C113.745 8.89591 114.33 8.4889 115.046 8.20554C115.768 7.91702 116.602 7.77277 117.55 7.77277C118.21 7.77277 118.841 7.85005 119.444 8.00461C120.051 8.15917 120.59 8.39874 121.059 8.72332C121.533 9.04789 121.906 9.46521 122.179 9.97526C122.452 10.4802 122.589 11.0855 122.589 11.7914V19.7976H119.467V18.1515H119.374C119.183 18.5225 118.928 18.8496 118.609 19.133C118.289 19.4112 117.906 19.6302 117.457 19.7899C117.009 19.9444 116.491 20.0217 115.904 20.0217ZM116.847 17.7497C117.331 17.7497 117.759 17.6544 118.13 17.4637C118.501 17.268 118.792 17.0052 119.003 16.6755C119.214 16.3458 119.32 15.9722 119.32 15.5549V14.2952C119.217 14.3622 119.075 14.424 118.895 14.4807C118.72 14.5322 118.521 14.5812 118.3 14.6275C118.078 14.6688 117.857 14.7074 117.635 14.7435C117.414 14.7744 117.213 14.8027 117.032 14.8285C116.646 14.8851 116.308 14.9753 116.02 15.099C115.731 15.2226 115.507 15.39 115.348 15.6013C115.188 15.8074 115.108 16.065 115.108 16.3741C115.108 16.8223 115.27 17.1649 115.595 17.4019C115.925 17.6338 116.342 17.7497 116.847 17.7497Z" fill="white"/>
<path d="M110.81 7.92736V10.4003H103.662V7.92736H110.81ZM105.284 5.08344H108.577V16.15C108.577 16.454 108.623 16.691 108.716 16.861C108.808 17.0258 108.937 17.1418 109.102 17.2087C109.272 17.2757 109.468 17.3092 109.689 17.3092C109.844 17.3092 109.999 17.2963 110.153 17.2706C110.308 17.2397 110.426 17.2165 110.509 17.201L111.026 19.6508C110.862 19.7023 110.63 19.7616 110.331 19.8286C110.032 19.9007 109.669 19.9445 109.241 19.9599C108.448 19.9908 107.752 19.8852 107.155 19.6431C106.562 19.4009 106.101 19.0248 105.771 18.5148C105.442 18.0047 105.279 17.3607 105.284 16.5828V5.08344Z" fill="white"/>
<path d="M95.4317 19.7976V7.92734H98.6234V9.99846H98.747C98.9634 9.26172 99.3266 8.7053 99.8367 8.3292C100.347 7.94795 100.934 7.75732 101.599 7.75732C101.764 7.75732 101.941 7.76763 102.132 7.78824C102.323 7.80884 102.49 7.83718 102.634 7.87324V10.7944C102.48 10.7481 102.266 10.7069 101.993 10.6708C101.72 10.6347 101.47 10.6167 101.243 10.6167C100.759 10.6167 100.326 10.7223 99.9449 10.9336C99.5688 11.1396 99.27 11.4281 99.0484 11.7991C98.832 12.17 98.7238 12.5977 98.7238 13.082V19.7976H95.4317Z" fill="white"/>
<path d="M87.8839 20.0295C86.6835 20.0295 85.6454 19.7744 84.7695 19.2644C83.8988 18.7492 83.2265 18.033 82.7525 17.116C82.2785 16.1938 82.0415 15.1247 82.0415 13.9088C82.0415 12.6827 82.2785 11.611 82.7525 10.694C83.2265 9.77175 83.8988 9.05562 84.7695 8.54557C85.6454 8.03037 86.6835 7.77277 87.8839 7.77277C89.0843 7.77277 90.1199 8.03037 90.9906 8.54557C91.8664 9.05562 92.5414 9.77175 93.0153 10.694C93.4893 11.611 93.7263 12.6827 93.7263 13.9088C93.7263 15.1247 93.4893 16.1938 93.0153 17.116C92.5414 18.033 91.8664 18.7492 90.9906 19.2644C90.1199 19.7744 89.0843 20.0295 87.8839 20.0295ZM87.8994 17.4792C88.4455 17.4792 88.9014 17.3246 89.2672 17.0155C89.633 16.7012 89.9087 16.2736 90.0941 15.7327C90.2848 15.1917 90.3801 14.576 90.3801 13.8857C90.3801 13.1953 90.2848 12.5796 90.0941 12.0387C89.9087 11.4977 89.633 11.0701 89.2672 10.7558C88.9014 10.4415 88.4455 10.2844 87.8994 10.2844C87.3481 10.2844 86.8844 10.4415 86.5083 10.7558C86.1374 11.0701 85.8566 11.4977 85.666 12.0387C85.4805 12.5796 85.3878 13.1953 85.3878 13.8857C85.3878 14.576 85.4805 15.1917 85.666 15.7327C85.8566 16.2736 86.1374 16.7012 86.5083 17.0155C86.8844 17.3246 87.3481 17.4792 87.8994 17.4792Z" fill="white"/>
<path d="M69.1189 19.7976V3.97058H75.3632C76.5636 3.97058 77.5863 4.19985 78.4312 4.65838C79.2761 5.11176 79.9201 5.74288 80.3632 6.55175C80.8114 7.35547 81.0356 8.28283 81.0356 9.33385C81.0356 10.3849 80.8089 11.3122 80.3555 12.1159C79.9021 12.9197 79.2452 13.5456 78.3848 13.9939C77.5296 14.4421 76.494 14.6662 75.2782 14.6662H71.2982V11.9846H74.7372C75.3812 11.9846 75.9119 11.8738 76.3292 11.6523C76.7516 11.4256 77.0659 11.1139 77.272 10.7172C77.4832 10.3153 77.5888 9.8542 77.5888 9.33385C77.5888 8.80834 77.4832 8.34981 77.272 7.95825C77.0659 7.56155 76.7516 7.255 76.3292 7.03862C75.9067 6.81708 75.3709 6.70631 74.7217 6.70631H72.4652V19.7976H69.1189Z" fill="white"/>
<path d="M51.4012 19.7976H47.8154L53.2791 3.97058H57.5914L63.0474 19.7976H59.4616L55.4971 7.58731H55.3734L51.4012 19.7976ZM51.1771 13.5765H59.647V16.1886H51.1771V13.5765Z" fill="white"/>
<path d="M36.8462 19.7976V3.97058H43.0905C44.2909 3.97058 45.3136 4.19985 46.1585 4.65838C47.0034 5.11176 47.6474 5.74288 48.0905 6.55175C48.5387 7.35547 48.7629 8.28283 48.7629 9.33385C48.7629 10.3849 48.5362 11.3122 48.0828 12.1159C47.6294 12.9197 46.9725 13.5456 46.1121 13.9939C45.2569 14.4421 44.2213 14.6662 43.0055 14.6662H39.0255V11.9846H42.4645C43.1085 11.9846 43.6392 11.8738 44.0565 11.6523C44.4789 11.4256 44.7932 11.1139 44.9993 10.7172C45.2105 10.3153 45.3161 9.8542 45.3161 9.33385C45.3161 8.80834 45.2105 8.34981 44.9993 7.95825C44.7932 7.56155 44.4789 7.255 44.0565 7.03862C43.634 6.81708 43.0982 6.70631 42.449 6.70631H40.1925V19.7976H36.8462Z" fill="white"/>
<path d="M23 19.7976V3.97058H29.2443C30.4395 3.97058 31.4596 4.18439 32.3046 4.61201C33.1547 5.03448 33.8012 5.63469 34.2443 6.41265C34.6925 7.18545 34.9167 8.09478 34.9167 9.14065C34.9167 10.1917 34.69 11.0958 34.2366 11.8532C33.7832 12.6054 33.1263 13.1824 32.2659 13.5843C31.4107 13.9861 30.3751 14.1871 29.1593 14.1871H24.9784V11.4977H28.6183C29.2571 11.4977 29.7878 11.4101 30.2103 11.2349C30.6327 11.0598 30.947 10.797 31.1531 10.4467C31.3643 10.0963 31.4699 9.661 31.4699 9.14065C31.4699 8.61514 31.3643 8.17206 31.1531 7.81142C30.947 7.45078 30.6302 7.17772 30.2025 6.99225C29.7801 6.80162 29.2468 6.70631 28.6028 6.70631H26.3462V19.7976H23ZM31.5472 12.5951L35.4808 19.7976H31.7868L27.9382 12.5951H31.5472Z" fill="white"/>
</svg>
